# xmcd
#
# Track frame offsets:
#	150
#	16146
#	30742
#	43159
#	62841
#	75277
#	91145
#	105070
#	118753
#	128535
#	144482
#	162448
#	173018
#	189430
#	208628
#	220930
#	233769
#	251551
#	265521
#	281491
#	293032
#	304806
#	319670
#	337136
#
# Disc length: 4690 seconds
# Revision: 0
# Processed by: cddbd v1.5.2PL0 Copyright (c) Steve Scherf et al.
# Submitted via: dBpowerAMP V12.0
#
DISCID=46125018
DTITLE=Keith Jamieson - 25 Years On The Road Of Song
DYEAR=1900
DGENRE=Country
TTITLE0=Good Morning Australia
TTITLE1=The Year 2000 Australian Bushman
TTITLE2=Overnighter
TTITLE3=The Ballad Of Mulga Dan
TTITLE4=Old Time Ringer
TTITLE5=I Did It My Way
TTITLE6=Capella Rodeo
TTITLE7=Blue Gumtree Ball
TTITLE8=Let's All buy Australian
TTITLE9=Solar Powered Ringer
TTITLE10=The Early Morning Country Show
TTITLE11=Oil Rig Man
TTITLE12=Alec Smith Pickup Man
TTITLE13=South Blackwater Mine
TTITLE14=The Beer With No Pub
TTITLE15=Howard
TTITLE16=Heaven's Highway One
TTITLE17=Drought Of The 90's
TTITLE18=He's The King Of Australia
TTITLE19=Bush Ballad Rock
TTITLE20=Gordonstone
TTITLE21=Dreamtime Country
TTITLE22=Coal Minin' Man
TTITLE23=Len Grant The Drover
EXTD=
EXTT0=
EXTT1=
EXTT2=
EXTT3=
EXTT4=
EXTT5=
EXTT6=
EXTT7=
EXTT8=
EXTT9=
EXTT10=
EXTT11=
EXTT12=
EXTT13=
EXTT14=
EXTT15=
EXTT16=
EXTT17=
EXTT18=
EXTT19=
EXTT20=
EXTT21=
EXTT22=
EXTT23=
PLAYORDER=
